# xmcd
#
# Track frame offsets: 
#        150
#        13763
#        27218
#        43160
#        54939
#        67485
#        79643
#        93102
#        107736
#        120427
#        142565
#        154858
#        168583
#        183250
#        200170
#        210024
#        221960
#        235133
#        250030
#        266759
#        284186
#        299739
#        326889
#        340198
#
# Disc length: 4708 seconds
#
# Revision: 0
# Processed by: cddbd v1.5.1PL0 Copyright (c) Steve Scherf et al.
# Submitted via: ExactAudioCopy v0.90a11
#
DISCID=6c126218
DTITLE=Shoking Blue - All Gold og the World
DYEAR=1900
DGENRE=
TTITLE0=Venus
TTITLE1=Shocking You
TTITLE2=Blossom Lady
TTITLE3=Inkpot
TTITLE4=Long and Lonesome Road
TTITLE5=Gonna Sing My Song
TTITLE6=I`m a Woman
TTITLE7=California Here I Come
TTITLE8=The Bird of Paradise
TTITLE9=Moonlight Night
TTITLE10=I`ll Follow the Sun
TTITLE11=Never Marry a Railroad Man
TTITLE12=Roll Engine Roll
TTITLE13=Is This a Dream?
TTITLE14=Wild Wind
TTITLE15=Bool Weevil
TTITLE16=I`ll Write Your Name Through the Fire
TTITLE17=Love Machine
TTITLE18=Love Buzz
TTITLE19=Alaska Country
TTITLE20=Sally Was a Good Old Girl
TTITLE21=Demon Lover
TTITLE22=Seven is a Number in Magic
TTITLE23=Hello Darkness
EXTD=
EXTT0=
EXTT1=
EXTT2=
EXTT3=
EXTT4=
EXTT5=
EXTT6=
EXTT7=
EXTT8=
EXTT9=
EXTT10=
EXTT11=
EXTT12=
EXTT13=
EXTT14=
EXTT15=
EXTT16=
EXTT17=
EXTT18=
EXTT19=
EXTT20=
EXTT21=
EXTT22=
EXTT23=
PLAYORDER=
